<?xml version="1.0" standalone="no"?>
<!DOCTYPE svg PUBLIC "-//W3C//DTD SVG 20010904//EN"
 "http://www.w3.org/TR/2001/REC-SVG-20010904/DTD/svg10.dtd">
<svg version="1.0" xmlns="http://www.w3.org/2000/svg"
 width="404.000000pt" height="378.000000pt" viewBox="0 0 404.000000 378.000000"
 preserveAspectRatio="xMidYMid meet">

<g transform="translate(0.000000,378.000000) scale(0.100000,-0.100000)"
fill="#000000" stroke="none">
<path d="M2743 3608 c-28 -29 -135 -152 -238 -273 -292 -343 -841 -968 -856
-973 -25 -10 -1 29 151 242 30 42 101 140 157 219 56 78 99 145 97 149 -3 5
-116 8 -252 8 l-247 0 -60 40 c-120 80 -262 110 -427 90 -195 -23 -321 -81
-443 -204 -133 -134 -172 -215 -289 -597 -180 -592 -253 -933 -287 -1334 -34
-408 61 -632 287 -675 62 -12 157 -4 214 18 93 36 235 185 464 487 237 313
295 362 447 372 l81 6 90 186 c54 112 91 200 92 220 1 31 -5 39 -65 85 -36 28
-88 66 -115 85 -27 19 -44 36 -37 38 6 2 67 -12 135 -32 201 -60 263 -83 260
-97 -3 -16 2 -5 -128 -273 -58 -121 -139 -292 -179 -380 -40 -88 -94 -205
-120 -260 -26 -55 -73 -156 -105 -225 -31 -69 -78 -166 -103 -217 -26 -51 -43
-94 -38 -97 4 -3 86 92 182 211 218 271 223 277 344 419 211 247 304 360 573
693 152 189 301 373 330 409 47 58 61 82 48 82 -17 0 -541 141 -547 147 -5 5
16 60 45 123 30 63 121 259 204 435 232 494 280 599 343 751 80 192 79 211 -8
122z m-1614 -1003 c16 -8 31 -22 35 -30 3 -9 6 -72 6 -140 0 -68 3 -130 6
-139 5 -13 24 -16 110 -16 111 0 150 -11 160 -44 4 -12 6 -70 6 -130 -3 -136
-9 -146 -96 -147 -34 -1 -88 -4 -121 -8 l-60 -6 -5 -143 c-6 -178 0 -172 -155
-172 -151 0 -148 -3 -153 180 l-4 138 -120 4 c-156 4 -158 6 -158 153 0 57 4
115 10 129 12 33 61 46 176 46 l91 0 7 38 c3 20 6 85 6 143 0 108 5 126 45
147 30 17 181 15 214 -3z"/>
<path d="M2769 3113 c-20 -2 -43 -12 -51 -21 -8 -9 -42 -75 -76 -147 -93 -200
-153 -326 -231 -489 -40 -83 -71 -159 -69 -169 3 -17 23 -25 123 -49 193 -46
180 -46 222 -5 40 40 81 53 145 44 120 -16 163 -200 69 -293 -19 -18 -47 -36
-62 -39 -22 -5 -81 -72 -266 -303 -131 -163 -263 -328 -295 -366 -32 -38 -58
-75 -58 -82 0 -10 52 -13 233 -16 231 -3 232 -3 284 -31 73 -38 130 -98 284
-303 74 -98 186 -236 250 -308 167 -189 244 -236 384 -236 145 0 238 58 295
183 42 94 50 151 50 360 0 283 -25 467 -122 897 -68 306 -184 712 -249 874
-50 125 -96 202 -171 282 -102 108 -237 180 -383 202 -82 13 -254 21 -306 15z
m362 -503 c53 -15 87 -56 100 -123 14 -69 -3 -126 -52 -173 -26 -25 -38 -29
-89 -29 -48 0 -63 4 -86 25 -60 56 -78 143 -45 215 21 47 48 73 87 85 39 11
44 11 85 0z m328 -348 c42 -21 81 -90 80 -141 0 -58 -30 -123 -68 -148 -26
-17 -48 -23 -92 -23 -53 0 -63 3 -97 35 -45 40 -66 99 -57 156 8 45 56 116 88
129 37 15 110 11 146 -8z m-290 -339 c63 -48 86 -158 48 -230 -53 -100 -204
-106 -254 -10 -37 73 -35 148 7 207 43 60 140 76 199 33z"/>
</g>
</svg>
