<?xml version="1.0" standalone="no"?>
<!DOCTYPE svg PUBLIC "-//W3C//DTD SVG 20010904//EN"
 "http://www.w3.org/TR/2001/REC-SVG-20010904/DTD/svg10.dtd">
<svg version="1.0" xmlns="http://www.w3.org/2000/svg"
 width="600.000000pt" height="378.000000pt" viewBox="0 0 600.000000 378.000000"
 preserveAspectRatio="xMidYMid meet">

<g transform="translate(0.000000,378.000000) scale(0.100000,-0.100000)"
fill="#000000" stroke="none">
<path d="M526 3140 c-78 -14 -156 -47 -231 -98 -169 -116 -250 -320 -248 -632
1 -300 59 -488 191 -620 108 -108 224 -157 399 -167 244 -14 437 64 542 221
l26 39 3 275 c2 200 0 277 -9 288 -16 19 -547 21 -554 2 -3 -7 -2 -69 3 -138
l7 -125 110 -1 110 -1 3 -80 c3 -80 3 -81 -30 -108 -50 -42 -90 -55 -170 -55
-185 0 -246 95 -255 398 -8 229 12 337 75 419 37 50 70 63 158 63 111 0 158
-33 184 -128 l11 -42 179 0 180 0 0 23 c0 44 -39 178 -67 229 -53 98 -168 185
-293 223 -64 19 -253 28 -324 15z"/>
<path d="M1733 3132 c-37 -4 -32 8 -113 -287 -23 -82 -92 -330 -155 -550 -175
-619 -177 -626 -171 -641 7 -19 338 -21 354 -1 6 6 23 59 37 117 15 58 32 111
37 118 8 9 61 12 204 12 223 0 198 13 228 -115 10 -38 22 -87 27 -107 l10 -38
167 1 c92 0 174 4 182 9 12 7 8 29 -23 137 -37 131 -167 596 -237 848 -21 77
-60 219 -85 315 -26 96 -49 177 -52 180 -5 5 -359 7 -410 2z m257 -680 c34
-134 60 -248 58 -254 -4 -10 -255 -14 -265 -4 -5 4 40 187 99 404 17 62 35
109 39 105 5 -5 36 -118 69 -251z"/>
<path d="M2782 3132 l-102 -3 2 -742 3 -742 144 -3 c97 -2 148 1 157 9 11 9
13 73 11 358 -1 190 0 393 3 451 l5 105 36 -100 c20 -55 80 -221 134 -370 53
-148 102 -276 107 -282 11 -14 195 -18 214 -5 5 4 38 86 72 182 34 96 86 245
116 330 30 85 61 169 68 185 11 26 14 -35 18 -415 l5 -445 154 -3 c104 -2 158
1 167 9 12 10 14 132 14 745 l0 734 -82 2 c-75 2 -231 1 -316 -1 -41 -1 -36
11 -182 -401 -142 -402 -131 -375 -142 -357 -8 15 -117 314 -224 617 -25 69
-52 131 -61 138 -17 12 -30 12 -321 4z"/>
<path d="M4320 3113 c-3 -187 1 -1457 5 -1463 6 -10 847 -11 863 -1 9 6 12 46
10 162 l-3 154 -255 2 -255 2 -3 134 -3 134 212 -1 c150 -1 216 2 224 11 15
14 18 259 4 285 -10 18 -23 19 -225 16 l-214 -3 0 128 0 127 249 0 c229 0 250
1 254 18 3 9 5 83 5 165 l1 147 -435 0 c-407 0 -434 -1 -434 -17z"/>
<path d="M460 1484 c-130 -24 -201 -56 -268 -123 -110 -110 -145 -268 -97
-434 40 -136 137 -207 391 -285 166 -51 198 -65 229 -98 51 -55 25 -148 -53
-186 -53 -25 -137 -21 -198 10 -49 25 -62 40 -79 89 l-13 38 -144 5 c-78 3
-151 3 -162 1 -16 -4 -18 -11 -12 -65 12 -117 96 -240 203 -299 81 -43 164
-59 308 -59 103 0 144 4 195 21 122 38 202 103 250 204 79 164 54 374 -57 478
-70 65 -140 96 -335 150 -123 33 -179 58 -202 91 -19 27 -21 96 -4 133 28 61
158 86 238 45 48 -24 70 -55 70 -96 0 -17 6 -36 13 -42 14 -12 144 -15 240 -6
l67 7 0 43 c0 63 -36 164 -78 219 -79 103 -196 154 -372 160 -58 2 -116 2
-130 -1z"/>
<path d="M1137 1463 c-4 -3 -7 -71 -7 -150 l0 -143 155 0 155 0 0 -530 0 -530
23 -5 c12 -3 85 -4 162 -3 l140 3 1 530 1 530 145 3 145 3 7 46 c8 58 8 216 0
237 -5 14 -56 16 -463 16 -252 0 -461 -3 -464 -7z"/>
<path d="M2217 1464 c-4 -4 -7 -310 -7 -680 0 -603 2 -672 16 -678 9 -3 75 -6
149 -6 101 0 135 3 144 14 8 10 11 80 9 234 -1 122 1 224 4 228 4 3 37 3 73
-1 49 -5 68 -11 72 -23 7 -20 101 -244 150 -357 19 -44 40 -83 46 -87 7 -4 83
-8 170 -8 134 0 157 2 157 15 0 18 -24 71 -144 317 -47 98 -86 182 -86 188 0
5 17 21 38 34 120 77 182 211 182 391 0 68 -22 171 -46 217 -23 45 -90 114
-137 141 -95 56 -127 60 -467 65 -173 2 -318 0 -323 -4z m553 -290 c50 -20 71
-57 77 -139 6 -74 -12 -131 -50 -159 -22 -16 -49 -21 -145 -27 -64 -3 -118 -6
-119 -5 -5 4 -13 299 -7 320 6 26 7 26 105 26 68 0 111 -5 139 -16z"/>
<path d="M3377 1463 c-4 -3 -7 -309 -7 -679 l0 -674 23 -5 c12 -3 85 -4 162
-3 l140 3 3 669 c1 486 -1 673 -9 682 -9 11 -47 14 -159 14 -80 0 -150 -3
-153 -7z"/>
<path d="M3903 1453 c-4 -10 -6 -317 -3 -683 l5 -665 155 0 155 0 5 320 5 320
46 -75 c25 -41 65 -106 88 -145 169 -281 238 -394 250 -409 11 -14 38 -16 187
-16 95 0 175 4 178 9 3 5 -46 95 -108 200 -63 105 -158 265 -211 356 l-97 166
103 162 c57 89 147 228 201 309 54 81 98 151 98 157 0 13 -328 15 -346 3 -6
-4 -64 -92 -129 -197 -64 -104 -149 -242 -188 -305 l-72 -115 -5 310 -5 310
-152 3 c-138 2 -153 1 -160 -15z"/>
<path d="M5125 1458 c-3 -7 -4 -314 -3 -683 l3 -670 395 -2 c217 -2 400 1 407
5 13 8 21 261 9 280 -5 9 -76 12 -247 12 l-240 0 3 122 3 123 208 3 208 2 -3
138 -3 137 -205 2 -205 1 -3 118 c-2 86 1 119 10 125 7 5 111 5 232 2 204 -5
220 -4 233 13 13 18 19 236 7 268 -5 14 -51 16 -405 16 -311 0 -401 -3 -404
-12z"/>
</g>
</svg>
